<svg width="105" height="25" viewBox="0 0 105 25" fill="none" xmlns="http://www.w3.org/2000/svg">
<g clip-path="url(#clip0_8606_896)">
<path fill-rule="evenodd" clip-rule="evenodd" d="M32.6672 16.9684C31.7109 15.2412 30.0824 14.5503 28.1871 14.5503C25.4325 14.5503 23.2393 16.4952 23.2393 19.7838C23.2393 23.1277 25.3182 25.0139 28.2807 25.0139C29.1899 25.0129 30.0821 24.768 30.8636 24.3049C31.6452 23.8417 32.2873 23.1774 32.7227 22.3816L30.6437 21.3176C30.1725 22.4368 29.4622 22.7719 28.5648 22.7719C27.0091 22.7719 26.2988 21.4834 26.2988 19.7838C26.2988 18.0842 26.8982 16.7957 28.5648 16.7957C28.9753 16.8192 29.3704 16.96 29.7028 17.2013C30.0352 17.4427 30.2909 17.7744 30.4393 18.1568L32.6672 16.9684Z" fill="#7C7D82"/>
<path fill-rule="evenodd" clip-rule="evenodd" d="M38.0274 16.782C39.694 16.782 40.4078 18.0705 40.4078 19.6596C40.4078 21.4697 39.694 22.7686 38.0274 22.7686C36.3608 22.7686 35.647 21.4801 35.647 19.7805C35.647 18.0809 36.3573 16.782 38.0274 16.782ZM38.0274 14.5366C34.909 14.5366 32.7227 16.4262 32.7227 19.7701C32.7227 23.1141 34.9159 25.0002 38.0274 25.0002C41.1389 25.0002 43.3287 23.1141 43.3287 19.7701C43.3287 16.4262 41.1389 14.5366 38.0274 14.5366Z" fill="#7C7D82"/>
<path fill-rule="evenodd" clip-rule="evenodd" d="M43.9277 24.7409H46.8521V18.554C46.8521 17.6593 47.2263 16.8924 48.4078 16.8924C49.5339 16.8924 49.8319 17.5453 49.8319 18.5194V24.7375H52.7563V18.63C52.7563 17.6213 53.2621 16.9027 54.2358 16.9027C55.3411 16.9027 55.7361 17.5384 55.7361 18.9409V24.7409H58.6604V17.1411C58.6604 14.8612 56.5607 14.5226 55.5871 14.5226C54.9896 14.5083 54.3957 14.6189 53.8436 14.8474C53.2916 15.0759 52.7937 15.4171 52.3821 15.8491C52.0876 15.4254 51.6914 15.082 51.2296 14.8503C50.7678 14.6186 50.2551 14.5059 49.7384 14.5226C48.8375 14.5226 47.6005 14.7852 46.8521 15.6626V14.799H43.9277V24.7409Z" fill="#7C7D82"/>
<path fill-rule="evenodd" clip-rule="evenodd" d="M59.5967 24.741H62.5176V18.554C62.5176 17.6593 62.8953 16.8924 64.0733 16.8924C65.2514 16.8924 65.487 17.5453 65.487 18.5195V24.7375H68.4114V18.63C68.4114 17.6213 68.9172 16.9028 69.8943 16.9028C70.9996 16.9028 71.3912 17.5384 71.3912 18.9409V24.741H74.3155V17.1412C74.3155 14.8612 72.2158 14.5227 71.2422 14.5227C70.6447 14.5086 70.0508 14.6193 69.4989 14.8478C68.9469 15.0762 68.449 15.4174 68.0371 15.8492C67.743 15.4253 67.3468 15.0817 66.8849 14.8499C66.423 14.6182 65.9102 14.5057 65.3934 14.5227C64.496 14.5227 63.2591 14.7852 62.5072 15.6627V14.799H59.5967V24.741Z" fill="#7C7D82"/>
<path fill-rule="evenodd" clip-rule="evenodd" d="M80.2261 16.782C81.8962 16.782 82.6065 18.0705 82.6065 19.6596C82.6065 21.4697 81.9135 22.7686 80.2261 22.7686C78.5387 22.7686 77.8457 21.4801 77.8457 19.7805C77.8457 18.0809 78.5595 16.782 80.2261 16.782ZM80.2261 14.5366C77.1077 14.5366 74.9248 16.4262 74.9248 19.7701C74.9248 23.1141 77.1146 25.0002 80.2261 25.0002C83.3376 25.0002 85.5308 23.1141 85.5308 19.7701C85.5308 16.4262 83.3376 14.5366 80.2261 14.5366Z" fill="#7C7D82"/>
<path fill-rule="evenodd" clip-rule="evenodd" d="M86.3174 24.7411H89.2417V18.5542C89.2417 17.6595 89.616 16.8926 90.7975 16.8926C91.9201 16.8926 92.2216 17.5455 92.2216 18.5196V24.7377H95.1459V17.3969C95.1459 15.9011 94.4876 14.5366 92.128 14.5366C91.2271 14.5366 89.9902 14.7992 89.2417 15.6766V14.7992H86.3174V24.7411Z" fill="#7C7D82"/>
<path fill-rule="evenodd" clip-rule="evenodd" d="M104.906 15.9771C103.613 15.0739 102.081 14.5726 100.502 14.5366C98.479 14.5366 96.2857 15.5108 96.2857 18.0153C96.2857 21.5457 102.176 20.3125 102.176 21.8636C102.176 22.7583 101.071 22.8723 100.582 22.8723C99.2517 22.8723 98.3335 22.3299 97.4361 21.4697L95.6309 23.0415C97.093 24.3853 98.33 25.0002 100.502 25.0002C102.675 25.0002 105.007 24.0675 105.007 21.4525C105.007 17.732 99.1165 19.1345 99.1165 17.4349C99.1165 16.9306 99.6397 16.668 100.371 16.668C101.289 16.668 102.543 17.0411 103.125 17.732L104.906 15.9771Z" fill="#7C7D82"/>
<path fill-rule="evenodd" clip-rule="evenodd" d="M32.6672 5.52702C31.7109 3.79978 30.0824 3.10889 28.1871 3.10889C25.4325 3.10889 23.2393 5.04339 23.2393 8.33204C23.2393 11.6794 25.3182 13.5656 28.2807 13.5656C29.1902 13.5639 30.0824 13.3183 30.864 12.8546C31.6455 12.3909 32.2875 11.726 32.7227 10.9298L30.6437 9.86583C30.1725 10.9885 29.4622 11.3236 28.5648 11.3236C27.0091 11.3236 26.2988 10.0351 26.2988 8.33204C26.2988 6.62899 26.8982 5.34393 28.5648 5.34393C28.9779 5.36867 29.3748 5.51239 29.7076 5.75767C30.0403 6.00295 30.2945 6.33923 30.4393 6.72572L32.6672 5.52702Z" fill="#7C7D82"/>
<path fill-rule="evenodd" clip-rule="evenodd" d="M33.3809 13.3032H36.3052V7.54802C36.3052 6.44605 36.9982 6.14896 38.7306 5.94169L39.0494 5.90369V3.32666C38.0486 3.36798 37.0882 3.7316 36.3122 4.363V3.36466H33.3809V13.3032Z" fill="#7C7D82"/>
<path fill-rule="evenodd" clip-rule="evenodd" d="M48.9899 8.92967C48.9691 5.87246 47.7322 3.10889 44.0975 3.10889C41.0623 3.10889 39.2051 5.1263 39.2051 8.63604C39.2051 11.4376 41.0034 13.569 44.0975 13.569C46.3289 13.569 47.9089 12.6916 48.9483 10.8054L46.7377 9.67238C45.8958 10.8676 45.3899 11.4273 44.3123 11.4273C43.3768 11.4273 42.1572 10.8296 42.1398 8.92276L48.9899 8.92967ZM42.0913 7.1368C42.1185 6.62769 42.3387 6.14788 42.7073 5.7945C43.0759 5.44112 43.5654 5.24055 44.0767 5.23339C44.3363 5.21667 44.5966 5.25371 44.8411 5.34217C45.0856 5.43063 45.3092 5.56859 45.4976 5.74738C45.686 5.92617 45.8353 6.14192 45.936 6.38104C46.0368 6.62016 46.0868 6.87748 46.0829 7.1368H42.0913Z" fill="#7C7D82"/>
<path fill-rule="evenodd" clip-rule="evenodd" d="M55.6948 9.15421C55.6948 10.6707 54.832 11.4342 53.6886 11.4342C52.9956 11.4342 52.3234 11.0887 52.3234 10.3149C52.3234 9.54111 52.9956 9.23021 53.7267 9.02639L55.6948 8.46331V9.15421ZM58.5083 5.97955C58.4875 3.7376 56.7828 3.10889 54.0524 3.10889C52.7011 3.10889 50.0401 3.37143 49.9465 6.21791H52.7566C52.909 5.22993 53.356 4.89139 54.295 4.89139C55.0815 4.89139 55.6809 5.2092 55.6809 5.95537V6.77753L54.6137 6.92953C51.426 7.37861 49.4961 8.21805 49.4961 10.6085C49.4961 12.5154 50.9202 13.5621 52.8328 13.5621C53.8722 13.5621 55.3448 13.0578 55.8299 12.2736H55.868C55.8857 12.6256 55.9485 12.9739 56.0551 13.3099H58.7543C58.5441 12.6401 58.4561 11.9381 58.4944 11.2373L58.5083 5.97955Z" fill="#7C7D82"/>
<path fill-rule="evenodd" clip-rule="evenodd" d="M65.3826 3.55122H63.6502V0.690918H60.7258V3.56849H59.3018V5.36136H60.7258V10.5776C60.7258 12.0147 61.0723 13.5657 63.574 13.5657C64.2115 13.5657 65.0743 13.4897 65.4485 13.4517V11.1545C65.1563 11.1889 64.8625 11.2073 64.5684 11.2098C64.0417 11.2098 63.6502 11.006 63.6502 10.2218V5.34409H65.3826V3.55122Z" fill="#7C7D82"/>
<path fill-rule="evenodd" clip-rule="evenodd" d="M66.4844 3.36465V13.3032H69.4053V3.36465H66.4844ZM69.4053 2.24195V0H66.4844V2.24195H69.4053Z" fill="#7C7D82"/>
<path fill-rule="evenodd" clip-rule="evenodd" d="M73.3416 13.3033H76.2833L79.6962 3.36475H76.5847L74.8592 10.3877H74.8211L73.0991 3.36475H69.9668L73.3416 13.3033Z" fill="#7C7D82"/>
<path fill-rule="evenodd" clip-rule="evenodd" d="M89.1375 8.92967C89.1167 5.87246 87.8797 3.10889 84.2451 3.10889C81.2098 3.10889 79.3457 5.11939 79.3457 8.63604C79.3457 11.4376 81.144 13.569 84.2381 13.569C86.4695 13.569 88.0495 12.6916 89.0716 10.8054L86.8888 9.67238C86.0433 10.8676 85.5375 11.4273 84.4633 11.4273C83.5278 11.4273 82.3082 10.8296 82.2909 8.92276L89.1375 8.92967ZM82.2389 7.1368C82.2661 6.62769 82.4862 6.14788 82.8548 5.7945C83.2235 5.44112 83.7129 5.24055 84.2243 5.23339C84.4825 5.21914 84.7408 5.25801 84.9833 5.34759C85.2258 5.43716 85.4472 5.57551 85.6337 5.75405C85.8203 5.93258 85.968 6.14747 86.0676 6.38535C86.1673 6.62323 86.2168 6.87902 86.2131 7.1368H82.2389Z" fill="#7C7D82"/>
<path fill-rule="evenodd" clip-rule="evenodd" d="M10.9492 2.93647C9.51669 2.91753 8.09536 3.18953 6.77174 3.73592C5.44812 4.2823 4.24994 5.09163 3.25017 6.11459C1.178 8.17325 0.00921551 10.9672 0.000101438 13.8837C-0.00613709 15.3174 0.27544 16.7379 0.828251 18.0615C1.38106 19.3851 2.19393 20.585 3.21898 21.5906C4.22812 22.6138 5.43116 23.4269 6.7582 23.9826C8.08525 24.5382 9.50982 24.8254 10.9492 24.8274C13.897 24.8171 16.7204 23.6419 18.8006 21.5595C19.8136 20.5565 20.6122 19.3593 21.1482 18.04C21.6842 16.7207 21.9464 15.3068 21.919 13.8837C21.9319 12.4434 21.6571 11.0149 21.1105 9.68157C20.5639 8.34826 19.7565 7.13678 18.7354 6.11779C17.7144 5.09881 16.5 4.29271 15.1632 3.74652C13.8263 3.20032 12.3938 2.92495 10.9492 2.93647V2.93647ZM10.9803 4.91588C12.1624 4.91173 13.3336 5.14154 14.4259 5.59199C15.5183 6.04244 16.5101 6.70458 17.3439 7.54003C18.1776 8.37547 18.8368 9.3676 19.2831 10.4589C19.7295 11.5502 19.9541 12.719 19.944 13.8975C19.9678 15.0605 19.7532 16.2161 19.3136 17.2936C18.8739 18.3711 18.2183 19.3478 17.3869 20.1639C15.6884 21.8618 13.3856 22.8216 10.9803 22.8342C9.80443 22.8346 8.64024 22.6014 7.55573 22.1483C6.47122 21.6951 5.48812 21.0311 4.66384 20.195C3.82178 19.3712 3.15159 18.3895 2.69191 17.3063C2.23222 16.223 1.99213 15.0598 1.98548 13.8837C2.00091 11.4944 2.96375 9.20812 4.66384 7.52401C5.48266 6.68281 6.46541 6.01749 7.55167 5.56897C8.63793 5.12044 9.80473 4.89819 10.9803 4.91588V4.91588Z" fill="#7C7D82"/>
<path fill-rule="evenodd" clip-rule="evenodd" d="M10.8377 12.063C10.2175 10.9369 9.16074 10.4878 7.9307 10.4878C6.14282 10.4878 4.71875 11.7487 4.71875 13.8835C4.71875 16.0184 6.05966 17.2724 7.99307 17.2724C8.58321 17.2712 9.16217 17.1118 9.66933 16.811C10.1765 16.5101 10.5932 16.0789 10.8759 15.5624L9.51069 14.8715C9.426 15.1577 9.24676 15.4069 9.00208 15.5788C8.7574 15.7506 8.46165 15.8349 8.16285 15.818C7.1511 15.818 6.69027 14.9821 6.69027 13.8801C6.69027 12.7781 7.07834 11.9387 8.16285 11.9387C8.42947 11.9536 8.6861 12.045 8.90185 12.2019C9.11761 12.3588 9.28331 12.5745 9.37903 12.823L10.8377 12.063Z" fill="#7C7D82"/>
<path fill-rule="evenodd" clip-rule="evenodd" d="M17.1717 12.063C16.5515 10.9369 15.4947 10.4878 14.2647 10.4878C12.4733 10.4878 11.0527 11.7452 11.0527 13.8835C11.0527 16.0219 12.3936 17.2724 14.3271 17.2724C14.9172 17.2712 15.4961 17.1118 16.0033 16.811C16.5105 16.5101 16.9272 16.0789 17.2098 15.5624L15.8481 14.8715C15.7622 15.1577 15.5822 15.4066 15.3371 15.5783C15.0919 15.75 14.796 15.8345 14.4968 15.818C13.4886 15.818 13.0243 14.9821 13.0243 13.8801C13.0243 12.7781 13.4123 11.9387 14.4968 11.9387C14.7635 11.9536 15.0201 12.045 15.2358 12.2019C15.4516 12.3588 15.6173 12.5745 15.713 12.823L17.1717 12.063Z" fill="#7C7D82"/>
</g>
<defs>
<clipPath id="clip0_8606_896">
<rect width="105" height="25" fill="white"/>
</clipPath>
</defs>
</svg>
