<svg width="237" height="71" viewBox="0 0 237 71" fill="none" xmlns="http://www.w3.org/2000/svg">
<path opacity="0.8" d="M32.5875 2.9585C14.5899 2.9585 0 17.5279 0 35.5002C0 53.4724 14.5899 68.0418 32.5875 68.0418C48.7346 68.0418 62.1387 56.3144 64.7244 40.9238H64.4906C62.0788 50.2808 53.5729 57.1946 43.45 57.1946C31.4517 57.1946 21.725 47.4817 21.725 35.5002C21.725 23.5186 31.4517 13.8057 43.45 13.8057C53.5729 13.8057 62.0788 20.7196 64.4906 30.0766H64.7244C62.1387 14.6859 48.7346 2.9585 32.5875 2.9585Z" fill="white"/>
<path d="M0 35.5002C0 17.5279 14.5899 2.9585 32.5875 2.9585C48.7346 2.9585 62.1387 14.6859 64.7244 30.0766H42.7656C40.3539 20.7196 31.848 13.8057 21.725 13.8057C9.72661 13.8057 0 23.5187 0 35.5002Z" fill="white"/>
<path d="M0 35.5003C0 53.4726 14.5899 68.042 32.5875 68.042C48.7346 68.042 62.1387 56.3146 64.7244 40.9239H42.7656C40.3539 50.2809 31.848 57.1948 21.725 57.1948C9.72661 57.1948 0 47.4818 0 35.5003Z" fill="white"/>
<path d="M111.744 30.3336C110.816 23.6416 105.661 19.7588 98.9744 19.7588C91.0947 19.7588 85.1592 25.4948 85.1592 35.2312C85.1592 44.953 91.0211 50.7036 98.9744 50.7036C106.147 50.7036 110.904 46.0707 111.744 40.32L106.235 40.2906C105.543 43.8205 102.656 45.806 99.048 45.806C94.1582 45.806 90.6528 42.1438 90.6528 35.2312C90.6528 28.4363 94.1287 24.6564 99.0627 24.6564C102.73 24.6564 105.602 26.7302 106.235 30.3336H111.744Z" fill="white"/>
<path d="M123.022 50.7478C126.572 50.7478 128.692 49.0858 129.665 47.1885H129.841V50.2918H134.967V35.1724C134.967 29.2011 130.092 27.4068 125.776 27.4068C121.019 27.4068 117.366 29.5247 116.188 33.6428L121.166 34.3488C121.696 32.8045 123.199 31.4808 125.806 31.4808C128.28 31.4808 129.635 32.7456 129.635 34.9665V35.0547C129.635 36.5843 128.03 36.6578 124.038 37.0844C119.649 37.555 115.452 38.864 115.452 43.9528C115.452 48.3945 118.707 50.7478 123.022 50.7478ZM124.407 46.8355C122.183 46.8355 120.592 45.8207 120.592 43.8646C120.592 41.8202 122.374 40.9672 124.76 40.6289C126.159 40.4377 128.958 40.0847 129.65 39.5258V42.1879C129.65 44.7029 127.617 46.8355 124.407 46.8355Z" fill="white"/>
<path d="M151.624 27.7009H147.162V22.2885H141.83V27.7009H138.619V31.819H141.83V44.3794C141.801 48.6299 144.894 50.7183 148.9 50.6007C150.417 50.5566 151.462 50.2624 152.037 50.0712L151.138 45.9089C150.844 45.9825 150.24 46.1149 149.577 46.1149C148.237 46.1149 147.162 45.6442 147.162 43.4969V31.819H151.624V27.7009Z" fill="white"/>
<path d="M162.593 50.7478C166.143 50.7478 168.264 49.0858 169.236 47.1885H169.413V50.2918H174.538V35.1724C174.538 29.2011 169.663 27.4068 165.348 27.4068C160.59 27.4068 156.938 29.5247 155.759 33.6428L160.738 34.3488C161.268 32.8045 162.77 31.4808 165.377 31.4808C167.851 31.4808 169.206 32.7456 169.206 34.9665V35.0547C169.206 36.5843 167.601 36.6578 163.61 37.0844C159.221 37.555 155.023 38.864 155.023 43.9528C155.023 48.3945 158.278 50.7478 162.593 50.7478ZM163.978 46.8355C161.754 46.8355 160.163 45.8207 160.163 43.8646C160.163 41.8202 161.945 40.9672 164.331 40.6289C165.731 40.4377 168.529 40.0847 169.221 39.5258V42.1879C169.221 44.7029 167.189 46.8355 163.978 46.8355Z" fill="white"/>
<path d="M185.231 20.1706H179.899V50.2918H185.231V20.1706Z" fill="white"/>
<path d="M200.581 50.733C207.209 50.733 211.421 46.0707 211.421 39.0846C211.421 32.0838 207.209 27.4068 200.581 27.4068C193.954 27.4068 189.741 32.0838 189.741 39.0846C189.741 46.0707 193.954 50.733 200.581 50.733ZM200.611 46.4678C196.944 46.4678 195.147 43.2027 195.147 39.0699C195.147 34.9371 196.944 31.6278 200.611 31.6278C204.219 31.6278 206.016 34.9371 206.016 39.0699C206.016 43.2027 204.219 46.4678 200.611 46.4678Z" fill="white"/>
<path d="M225.785 59.2341C231.898 59.2341 236.404 56.4396 236.404 50.6595V27.7009H231.146V31.4366H230.852C230.042 29.8041 228.348 27.4068 224.357 27.4068C219.128 27.4068 215.019 31.4955 215.019 38.9228C215.019 46.2913 219.128 49.9682 224.342 49.9682C228.215 49.9682 230.027 47.8945 230.852 46.2325H231.117V50.5124C231.117 53.8364 228.908 55.2042 225.874 55.2042C222.663 55.2042 221.249 53.6893 220.601 52.3656L215.799 53.5275C216.772 56.6896 220.027 59.2341 225.785 59.2341ZM225.829 45.7913C222.309 45.7913 220.454 43.0557 220.454 38.8934C220.454 34.79 222.28 31.7749 225.829 31.7749C229.261 31.7749 231.146 34.6135 231.146 38.8934C231.146 43.2027 229.232 45.7913 225.829 45.7913Z" fill="white"/>
</svg>
