<svg width="36" height="37" viewBox="0 0 36 37" fill="none" xmlns="http://www.w3.org/2000/svg">
<rect y="0.417969" width="36" height="36" rx="18" fill="white"/>
<path d="M9 11.838C9 11.2608 9.20271 10.7846 9.60811 10.4095C10.0135 10.0343 10.5405 9.84668 11.1892 9.84668C11.8263 9.84668 12.3417 10.0314 12.7355 10.4008C13.1409 10.7817 13.3436 11.2781 13.3436 11.89C13.3436 12.4441 13.1467 12.9058 12.7529 13.2752C12.3475 13.6562 11.8147 13.8467 11.1544 13.8467H11.1371C10.5 13.8467 9.98456 13.6562 9.59073 13.2752C9.19691 12.8943 9 12.4152 9 11.838ZM9.22587 26.9895V15.4224H13.083V26.9895H9.22587ZM15.2201 26.9895H19.0772V20.5307C19.0772 20.1266 19.1236 19.8149 19.2162 19.5956C19.3784 19.2031 19.6245 18.8712 19.9546 18.5999C20.2847 18.3286 20.6988 18.193 21.1969 18.193C22.4942 18.193 23.1429 19.0646 23.1429 20.8077V26.9895H27V20.3575C27 18.649 26.5946 17.3532 25.7838 16.4701C24.973 15.5869 23.9015 15.1454 22.5695 15.1454C21.0753 15.1454 19.9112 15.7861 19.0772 17.0675V17.1021H19.0598L19.0772 17.0675V15.4224H15.2201C15.2432 15.7918 15.2548 16.9405 15.2548 18.8683C15.2548 20.7962 15.2432 23.5032 15.2201 26.9895Z" fill="#3A3D43"/>
</svg>
