<svg width="36" height="37" viewBox="0 0 36 37" fill="none" xmlns="http://www.w3.org/2000/svg">
<rect y="0.417969" width="36" height="36" rx="18" fill="white"/>
<path d="M21.0271 11.1195V11.1162H21.8711L22.1794 11.1778C22.385 11.2178 22.5717 11.2702 22.7394 11.335C22.9071 11.3999 23.0694 11.4755 23.2263 11.5619C23.3832 11.6484 23.5255 11.7365 23.6532 11.8261C23.7798 11.9148 23.8934 12.0088 23.9941 12.1082C24.0936 12.2087 24.2489 12.2346 24.4599 12.186C24.6709 12.1373 24.8981 12.0698 25.1416 11.9834C25.385 11.8969 25.6258 11.7997 25.8638 11.6916C26.1019 11.5835 26.2469 11.5149 26.2988 11.4858C26.3497 11.4555 26.3768 11.4393 26.38 11.4371L26.3832 11.4323L26.3995 11.4242L26.4157 11.4161L26.4319 11.408L26.4482 11.3999L26.4514 11.395L26.4563 11.3918L26.4612 11.3885L26.4644 11.3836L26.4806 11.3788L26.4968 11.3755L26.4936 11.3999L26.4887 11.4242L26.4806 11.4485L26.4725 11.4728L26.4644 11.489L26.4563 11.5052L26.4482 11.5295C26.4427 11.5457 26.4373 11.5673 26.4319 11.5944C26.4265 11.6214 26.3751 11.7294 26.2777 11.9185C26.1803 12.1076 26.0586 12.2994 25.9125 12.4939C25.7665 12.6884 25.6355 12.8354 25.5198 12.9348C25.4029 13.0353 25.3255 13.1055 25.2876 13.1455C25.2498 13.1866 25.2038 13.2244 25.1497 13.259L25.0685 13.3125L25.0523 13.3206L25.0361 13.3287L25.0328 13.3335L25.028 13.3368L25.0231 13.34L25.0198 13.3449L25.0036 13.353L24.9874 13.3611L24.9841 13.3659L24.9793 13.3692L24.9744 13.3724L24.9711 13.3773L24.9679 13.3821L24.963 13.3854L24.9582 13.3886L24.9549 13.3935H25.0361L25.4905 13.2962C25.7935 13.2314 26.083 13.1531 26.3589 13.0612L26.7971 12.9153L26.8458 12.8991L26.8702 12.891L26.8864 12.8829L26.9026 12.8748L26.9188 12.8667L26.9351 12.8586L26.9675 12.8538L27 12.8505V12.8829L26.9919 12.8862L26.9838 12.891L26.9805 12.8959L26.9757 12.8991L26.9708 12.9024L26.9675 12.9072L26.9643 12.9121L26.9594 12.9153L26.9546 12.9186L26.9513 12.9234L26.9481 12.9283L26.9432 12.9316L26.9351 12.9478L26.927 12.964L26.9221 12.9672C26.9199 12.9705 26.8512 13.0623 26.716 13.2428C26.5807 13.4243 26.5077 13.5161 26.4968 13.5183C26.486 13.5215 26.4709 13.5377 26.4514 13.5669C26.433 13.5972 26.3183 13.7177 26.1073 13.9284C25.8963 14.1391 25.6897 14.3265 25.4873 14.4908C25.2839 14.6561 25.1811 14.8593 25.1789 15.1002C25.1757 15.3401 25.1632 15.6114 25.1416 15.9139C25.1199 16.2165 25.0794 16.5433 25.0198 16.8945C24.9603 17.2457 24.8684 17.6428 24.7439 18.0858C24.6195 18.5289 24.468 18.9611 24.2894 19.3825C24.1109 19.8039 23.9243 20.1821 23.7295 20.5171C23.5347 20.8521 23.3562 21.1357 23.1939 21.368C23.0316 21.6003 22.8666 21.8192 22.6988 22.0245C22.5311 22.2298 22.319 22.461 22.0626 22.7182C21.8051 22.9743 21.6644 23.1148 21.6406 23.1396C21.6157 23.1634 21.5097 23.252 21.3225 23.4054C21.1363 23.5599 20.9362 23.7145 20.7219 23.869C20.5088 24.0224 20.3129 24.1505 20.1344 24.2531C19.9558 24.3558 19.7405 24.473 19.4884 24.6048C19.2373 24.7378 18.9657 24.8609 18.6736 24.9744C18.3814 25.0879 18.073 25.1932 17.7484 25.2905C17.4238 25.3877 17.11 25.4634 16.807 25.5174C16.5041 25.5714 16.1605 25.6173 15.7764 25.6552L15.2002 25.7119V25.72H14.1452V25.7119L14.0072 25.7038C13.9152 25.6984 13.8395 25.693 13.78 25.6876C13.7205 25.6822 13.4959 25.6524 13.1064 25.5984C12.7169 25.5444 12.4112 25.4904 12.1894 25.4363C11.9675 25.3823 11.6375 25.2797 11.1993 25.1284C10.761 24.9771 10.3861 24.8242 10.0745 24.6697C9.76394 24.5162 9.56917 24.419 9.49017 24.3779C9.41226 24.3379 9.32462 24.2882 9.22723 24.2288L9.08115 24.1397L9.07792 24.1348L9.07304 24.1316L9.06817 24.1283L9.06492 24.1235L9.04869 24.1154L9.03246 24.1073L9.02923 24.1024L9.02435 24.0991L9.01948 24.0959L9.01623 24.091L9.013 24.0862L9.00812 24.0829H9V24.0505L9.01623 24.0538L9.03246 24.0586L9.1055 24.0667C9.15419 24.0721 9.28675 24.0802 9.50316 24.091C9.71958 24.1019 9.9495 24.1019 10.193 24.091C10.4364 24.0802 10.6853 24.0559 10.9396 24.0181C11.1939 23.9803 11.4941 23.9155 11.8404 23.8236C12.1867 23.7318 12.5048 23.6226 12.7948 23.4962C13.0837 23.3687 13.2893 23.2736 13.4116 23.2109C13.5327 23.1493 13.7178 23.0348 13.9666 22.8673L14.3399 22.6161L14.3432 22.6112L14.3481 22.608L14.3529 22.6047L14.3562 22.5999L14.3594 22.595L14.3643 22.5918L14.3692 22.5885L14.3724 22.5837L14.3886 22.5788L14.4049 22.5756L14.4081 22.5593L14.413 22.5431L14.4179 22.5399L14.4211 22.535L14.2913 22.5269C14.2047 22.5215 14.1208 22.5161 14.0397 22.5107C13.9585 22.5053 13.8314 22.481 13.6583 22.4378C13.4851 22.3946 13.2985 22.3297 13.0983 22.2433C12.8981 22.1568 12.7033 22.0542 12.514 21.9353C12.3246 21.8165 12.1877 21.7176 12.1033 21.6387C12.02 21.5609 11.9118 21.4507 11.7787 21.3081C11.6467 21.1644 11.532 21.0168 11.4346 20.8656C11.3372 20.7143 11.2442 20.5398 11.1555 20.342L11.0207 20.047L11.0126 20.0227L11.0045 19.9984L10.9996 19.9822L10.9964 19.966L11.0207 19.9692L11.0451 19.9741L11.2236 19.9984C11.3427 20.0146 11.5293 20.02 11.7836 20.0146C12.0379 20.0092 12.2137 19.9984 12.3111 19.9822C12.4085 19.966 12.468 19.9552 12.4896 19.9498L12.5221 19.9417L12.5627 19.9336L12.6032 19.9255L12.6065 19.9206L12.6114 19.9174L12.6162 19.9141L12.6195 19.9093L12.587 19.9012L12.5546 19.8931L12.5221 19.885L12.4896 19.8769L12.4572 19.8688C12.4355 19.8634 12.3977 19.8525 12.3436 19.8363C12.2895 19.8201 12.1434 19.7607 11.9053 19.658C11.6673 19.5554 11.4779 19.4554 11.3372 19.3582C11.1962 19.2607 11.0618 19.154 10.9347 19.0389C10.8081 18.9222 10.6691 18.772 10.5176 18.5883C10.3661 18.4046 10.2308 18.1912 10.1118 17.9481C9.99279 17.7049 9.90352 17.4726 9.844 17.2511C9.78472 17.0309 9.74561 16.8057 9.72716 16.5784L9.69793 16.2381L9.71416 16.2413L9.73039 16.2462L9.74662 16.2543L9.76285 16.2624L9.77908 16.2705L9.79531 16.2786L10.0469 16.392C10.2146 16.4677 10.4229 16.5325 10.6718 16.5865C10.9207 16.6406 11.0694 16.6703 11.1181 16.6757L11.1912 16.6838H11.3372L11.334 16.6789L11.3291 16.6757L11.3243 16.6725L11.321 16.6676L11.3178 16.6627L11.3129 16.6595L11.308 16.6562L11.3048 16.6514L11.2885 16.6433L11.2723 16.6352L11.2691 16.6303L11.2642 16.6271L11.2593 16.6238L11.2561 16.619L11.2399 16.6109L11.2236 16.6028L11.2204 16.5979C11.2171 16.5957 11.1706 16.5611 11.0808 16.4942C10.9921 16.4261 10.899 16.338 10.8016 16.23C10.7042 16.1219 10.6069 16.0084 10.5095 15.8896C10.4119 15.7705 10.325 15.643 10.2498 15.5087C10.174 15.3736 10.094 15.2018 10.0096 14.9933C9.92625 14.7858 9.86294 14.5767 9.81966 14.366C9.77639 14.1553 9.75204 13.9473 9.74662 13.742C9.74121 13.5367 9.74662 13.3611 9.76285 13.2152C9.77908 13.0693 9.81154 12.9045 9.86023 12.7208C9.90893 12.5372 9.97927 12.3427 10.0712 12.1373L10.2092 11.8294L10.2173 11.8051L10.2254 11.7808L10.2303 11.7775L10.2335 11.7727L10.2368 11.7678L10.2417 11.7645L10.2465 11.7678L10.2498 11.7727L10.253 11.7775L10.2579 11.7808L10.2628 11.784L10.266 11.7889L10.2693 11.7937L10.2741 11.797L10.2822 11.8132L10.2904 11.8294L10.2952 11.8326L10.2985 11.8375L10.5176 12.0806C10.6637 12.2427 10.8368 12.4237 11.037 12.6236C11.2372 12.8235 11.3481 12.9272 11.3697 12.9348C11.3914 12.9434 11.4184 12.9683 11.4509 13.0094C11.4833 13.0493 11.5915 13.145 11.7755 13.2962C11.9594 13.4475 12.2002 13.6231 12.4977 13.823C12.7953 14.0229 13.1253 14.2201 13.4878 14.4146C13.8503 14.6091 14.2399 14.7847 14.6564 14.9414C15.073 15.0981 15.3652 15.2007 15.5329 15.2494C15.7006 15.298 15.9874 15.3601 16.3931 15.4358C16.7989 15.5114 17.1046 15.56 17.3102 15.5816C17.5158 15.6032 17.6565 15.6157 17.7322 15.6189L17.8458 15.6221L17.8426 15.5978L17.8377 15.5735L17.8052 15.3709C17.7836 15.2359 17.7728 15.0467 17.7728 14.8036C17.7728 14.5605 17.7917 14.3363 17.8296 14.131C17.8675 13.9257 17.9243 13.7177 18 13.507C18.0757 13.2962 18.1499 13.1271 18.2224 12.9996C18.296 12.8732 18.3923 12.7289 18.5113 12.5669C18.6303 12.4048 18.7845 12.2373 18.9739 12.0644C19.1632 11.8915 19.3796 11.7375 19.6231 11.6025C19.8665 11.4674 20.0911 11.3647 20.2967 11.2945C20.5023 11.2243 20.6754 11.1783 20.8161 11.1567C20.9567 11.1351 21.0271 11.1227 21.0271 11.1195V11.1195Z" fill="#3A3D43"/>
</svg>
