<svg width="36" height="37" viewBox="0 0 36 37" fill="none" xmlns="http://www.w3.org/2000/svg">
<rect y="0.417969" width="36" height="36" rx="18" fill="white"/>
<path d="M18.4383 25.3977L14.3761 25.3217C13.0608 25.2953 11.7423 25.3481 10.4528 25.074C8.49128 24.6645 8.35232 22.6566 8.20691 20.9723C8.00654 18.6045 8.08411 16.1937 8.46222 13.8456C8.67567 12.5281 9.51571 11.7419 10.8148 11.6564C15.2001 11.3459 19.6146 11.3827 23.9903 11.5275C24.4524 11.5408 24.9177 11.6134 25.3734 11.696C27.6227 12.0989 27.6775 14.3743 27.8233 16.2898C27.9688 18.225 27.9074 20.1702 27.6294 22.0922C27.4065 23.6836 26.9798 25.0181 25.1795 25.147C22.9237 25.3154 20.7197 25.4511 18.4576 25.4079C18.4577 25.3977 18.4447 25.3977 18.4383 25.3977ZM16.0501 21.3687C17.75 20.3713 19.4175 19.3905 21.1076 18.3998C19.4046 17.4023 17.7403 16.4215 16.0501 15.4308V21.3687Z" fill="#3A3D43"/>
</svg>
