<svg width="66" height="66" viewBox="0 0 66 66" fill="none" xmlns="http://www.w3.org/2000/svg">
<rect width="65.489" height="65.5855" rx="18.1914" fill="#F3F6FF"/>
<path d="M29.1305 30.6184H30.4639C30.8175 30.6184 31.1566 30.4777 31.4067 30.2273C31.6567 29.9769 31.7972 29.6373 31.7972 29.2831C31.7972 28.929 31.6567 28.5893 31.4067 28.3389C31.1566 28.0885 30.8175 27.9478 30.4639 27.9478H29.1305C28.7769 27.9478 28.4378 28.0885 28.1877 28.3389C27.9377 28.5893 27.7972 28.929 27.7972 29.2831C27.7972 29.6373 27.9377 29.9769 28.1877 30.2273C28.4378 30.4777 28.7769 30.6184 29.1305 30.6184V30.6184ZM29.1305 33.289C28.7769 33.289 28.4378 33.4297 28.1877 33.6801C27.9377 33.9305 27.7972 34.2702 27.7972 34.6243C27.7972 34.9784 27.9377 35.3181 28.1877 35.5685C28.4378 35.8189 28.7769 35.9596 29.1305 35.9596H37.1305C37.4842 35.9596 37.8233 35.8189 38.0733 35.5685C38.3234 35.3181 38.4639 34.9784 38.4639 34.6243C38.4639 34.2702 38.3234 33.9305 38.0733 33.6801C37.8233 33.4297 37.4842 33.289 37.1305 33.289H29.1305ZM43.7972 29.203C43.7833 29.0803 43.7565 28.9595 43.7172 28.8425V28.7223C43.6531 28.585 43.5676 28.4588 43.4639 28.3484V28.3484L35.4639 20.3366C35.3536 20.2328 35.2276 20.1471 35.0905 20.0829C35.0507 20.0773 35.0103 20.0773 34.9705 20.0829C34.8351 20.0051 34.6855 19.9552 34.5305 19.936H26.4639C25.403 19.936 24.3856 20.3581 23.6354 21.1093C22.8853 21.8606 22.4639 22.8795 22.4639 23.9419V42.6361C22.4639 43.6985 22.8853 44.7174 23.6354 45.4687C24.3856 46.2199 25.403 46.642 26.4639 46.642H39.7972C40.8581 46.642 41.8755 46.2199 42.6256 45.4687C43.3758 44.7174 43.7972 43.6985 43.7972 42.6361V29.2831C43.7972 29.2831 43.7972 29.2831 43.7972 29.203ZM35.7972 24.4894L39.2505 27.9478H37.1305C36.7769 27.9478 36.4378 27.8071 36.1877 27.5567C35.9377 27.3063 35.7972 26.9667 35.7972 26.6125V24.4894ZM41.1305 42.6361C41.1305 42.9902 40.9901 43.3299 40.74 43.5803C40.49 43.8307 40.1508 43.9714 39.7972 43.9714H26.4639C26.1102 43.9714 25.7711 43.8307 25.5211 43.5803C25.271 43.3299 25.1305 42.9902 25.1305 42.6361V23.9419C25.1305 23.5878 25.271 23.2481 25.5211 22.9977C25.7711 22.7473 26.1102 22.6066 26.4639 22.6066H33.1305V26.6125C33.1305 27.6749 33.552 28.6939 34.3021 29.4451C35.0523 30.1964 36.0697 30.6184 37.1305 30.6184H41.1305V42.6361ZM37.1305 38.6302H29.1305C28.7769 38.6302 28.4378 38.7709 28.1877 39.0213C27.9377 39.2717 27.7972 39.6113 27.7972 39.9655C27.7972 40.3196 27.9377 40.6593 28.1877 40.9097C28.4378 41.1601 28.7769 41.3008 29.1305 41.3008H37.1305C37.4842 41.3008 37.8233 41.1601 38.0733 40.9097C38.3234 40.6593 38.4639 40.3196 38.4639 39.9655C38.4639 39.6113 38.3234 39.2717 38.0733 39.0213C37.8233 38.7709 37.4842 38.6302 37.1305 38.6302Z" fill="#7291FF"/>
</svg>
