<svg width="66" height="66" viewBox="0 0 66 66" fill="none" xmlns="http://www.w3.org/2000/svg">
<rect width="65.489" height="65.5855" rx="18.1914" fill="#F8F1FF"/>
<path d="M46.0771 38.0693L40.0505 32.0471C40.1766 31.432 40.2392 30.8056 40.2371 30.1777C40.2367 28.456 39.8028 26.7623 38.9757 25.253C38.1486 23.7437 36.9549 22.4675 35.505 21.5425C34.0551 20.6175 32.3957 20.0735 30.6803 19.9607C28.9648 19.848 27.2487 20.1701 25.6905 20.8974C25.4931 20.9877 25.3206 21.1249 25.1882 21.2971C25.0557 21.4693 24.9673 21.6713 24.9305 21.8855C24.8938 22.097 24.9086 22.3142 24.9736 22.5188C25.0386 22.7233 25.1518 22.9092 25.3038 23.0606L31.1038 28.8557L28.7038 31.2593L22.9171 25.4507C22.7647 25.3009 22.5785 25.19 22.3744 25.1272C22.1702 25.0645 21.9539 25.0518 21.7438 25.0902C21.5312 25.1257 21.3305 25.2123 21.1586 25.3425C20.9868 25.4728 20.849 25.6428 20.7571 25.838C20.0285 27.4036 19.7071 29.1284 19.8229 30.8518C19.9386 32.5753 20.4877 34.2414 21.4192 35.6952C22.3506 37.1491 23.634 38.3433 25.1501 39.167C26.6662 39.9906 28.3657 40.4169 30.0905 40.4061C30.7175 40.4081 31.343 40.3454 31.9571 40.2191L37.9705 46.2547C38.0944 46.3798 38.2419 46.4792 38.4044 46.5469C38.5668 46.6147 38.7411 46.6496 38.9171 46.6496C39.0932 46.6496 39.2674 46.6147 39.4299 46.5469C39.5924 46.4792 39.7399 46.3798 39.8638 46.2547C39.9888 46.1305 40.088 45.9828 40.1557 45.8201C40.2234 45.6574 40.2582 45.4829 40.2582 45.3066C40.2582 45.1303 40.2234 44.9558 40.1557 44.7931C40.088 44.6304 39.9888 44.4827 39.8638 44.3585L33.3305 37.8156C33.1672 37.6532 32.9647 37.5358 32.7428 37.475C32.5208 37.4142 32.2869 37.4119 32.0638 37.4684C31.42 37.6411 30.7569 37.7308 30.0905 37.7355C29.0932 37.7443 28.1041 37.5554 27.18 37.1797C26.2559 36.804 25.4152 36.2489 24.7063 35.5464C23.9974 34.8439 23.4343 34.0078 23.0494 33.0864C22.6646 32.165 22.4655 31.1765 22.4638 30.1777C22.4621 29.7304 22.4978 29.2837 22.5705 28.8424L27.7971 34.0901C27.9211 34.2153 28.0686 34.3146 28.231 34.3824C28.3935 34.4502 28.5678 34.4851 28.7438 34.4851C28.9198 34.4851 29.0941 34.4502 29.2566 34.3824C29.4191 34.3146 29.5665 34.2153 29.6905 34.0901L33.9305 29.8038C34.1708 29.5548 34.3051 29.2221 34.3051 28.8758C34.3051 28.5295 34.1708 28.1967 33.9305 27.9477L28.7438 22.7134C29.1846 22.6413 29.6305 22.6056 30.0771 22.6066C32.0799 22.6101 33.9994 23.4093 35.4142 24.8288C36.8291 26.2483 37.6238 28.172 37.6238 30.1777C37.6192 30.8451 37.5295 31.5092 37.3571 32.1539C37.3007 32.3774 37.303 32.6116 37.3637 32.8339C37.4245 33.0562 37.5416 33.259 37.7038 33.4225L44.2371 39.9654C44.4882 40.2169 44.8287 40.3581 45.1838 40.3581C45.5389 40.3581 45.8794 40.2169 46.1305 39.9654C46.3815 39.714 46.5226 39.3729 46.5226 39.0174C46.5226 38.6618 46.3815 38.3207 46.1305 38.0693H46.0771Z" fill="#A276FF"/>
</svg>
